PathFileType	4	(X/Y/Z)	test.trc
DataRate	CameraRate	NumFrames	NumMarkers	Units	OrigDataRate	OrigDataStartFrame	OrigNumFrames
50.0	50.0	8	39	m	50.0	547	1092
Frame#	Time	Derrick:C7			Derrick:CLAV			Derrick:LANK			Derrick:LASI			Derrick:LBHD			Derrick:LELB			Derrick:LFHD			Derrick:LFIN			Derrick:LFRM			Derrick:LHEE			Derrick:LKNE			Derrick:LPSI			Derrick:LSHO			Derrick:LTHI			Derrick:LTIB			Derrick:LTOE			Derrick:LUPA			Derrick:LWRA			Derrick:LWRB			Derrick:RANK			Derrick:RASI			Derrick:RBAK			Derrick:RBHD			Derrick:RELB			Derrick:RFHD			Derrick:RFIN			Derrick:RFRM			Derrick:RHEE			Derrick:RKNE			Derrick:RPSI			Derrick:RSHO			Derrick:RTHI			Derrick:RTIB			Derrick:RTOE			Derrick:RUPA			Derrick:RWRA			Derrick:RWRB			Derrick:STRN			Derrick:T10		
		X1	Y1	Z1	X2	Y2	Z2	X3	Y3	Z3	X4	Y4	Z4	X5	Y5	Z5	X6	Y6	Z6	X7	Y7	Z7	X8	Y8	Z8	X9	Y9	Z9	X10	Y10	Z10	X11	Y11	Z11	X12	Y12	Z12	X13	Y13	Z13	X14	Y14	Z14	X15	Y15	Z15	X16	Y16	Z16	X17	Y17	Z17	X18	Y18	Z18	X19	Y19	Z19	X20	Y20	Z20	X21	Y21	Z21	X22	Y22	Z22	X23	Y23	Z23	X24	Y24	Z24	X25	Y25	Z25	X26	Y26	Z26	X27	Y27	Z27	X28	Y28	Z28	X29	Y29	Z29	X30	Y30	Z30	X31	Y31	Z31	X32	Y32	Z32	X33	Y33	Z33	X34	Y34	Z34	X35	Y35	Z35	X36	Y36	Z36	X37	Y37	Z37	X38	Y38	Z38	X39	Y39	Z39

547	10.920	-0.28497	1.73812	1.31041	-0.46819	1.68849	1.36718	-0.48306	1.77204	0.10765	-0.64299	1.52620	0.89751	-0.19242	1.72955	1.43954	-0.22546	1.40060	1.23293	-0.21324	1.62587	1.48479	-0.30054	1.36030	1.52051	-0.24367	1.34989	1.30257	-0.47324	1.86941	0.10258	-0.58261	1.54915	0.41284	-0.48883	1.67003	0.90610	-0.30279	1.58959	1.39384	-0.56672	1.52727	0.54693	-0.52176	1.63870	0.25118	-0.61193	1.74394	0.02704	-0.24568	1.46349	1.27020	-0.31278	1.40421	1.43174	-0.31538	1.31216	1.41159	-0.62531	2.16687	0.19685	-0.76647	1.72415	0.93065	-0.35730	1.80019	1.19360	-0.29928	1.81621	1.51451	-0.32921	2.09758	1.31903	-0.35019	1.71768	1.57328	-0.16534	1.90633	1.45961	-0.27348	2.06150	1.40242	-0.54518	2.14669	0.21466	-0.77011	1.90927	0.49019	-0.54879	1.76217	0.91907	-0.33106	1.83962	1.33240	-0.78898	1.81937	0.74331	-0.70107	2.08390	0.27586	-0.64033	2.13656	0.03685	-0.33867	1.99381	1.29882	-0.26448	1.91430	1.45422	-0.22225	1.98892	1.50225	-0.60333	1.63912	1.24920	-0.37756	1.72573	1.13432
548	10.940	-0.28242	1.71982	1.33252	-0.45937	1.64803	1.38996	-0.47756	1.76567	0.11055	-0.62993	1.50618	0.91555	-0.18480	1.70786	1.45933	-0.20817	1.40117	1.20274	-0.19738	1.59953	1.49585	-0.29605	1.34056	1.47861	-0.23265	1.34178	1.26214	-0.47181	1.86004	0.10849	-0.54962	1.55682	0.43597	-0.49004	1.66443	0.93456	-0.28547	1.55791	1.39836	-0.53896	1.53258	0.57028	-0.50081	1.64187	0.26500	-0.61124	1.74095	0.02759	-0.22764	1.45543	1.25147	-0.30926	1.38363	1.39137	-0.30154	1.29357	1.36446	-0.64204	2.12212	0.19902	-0.76979	1.69084	0.95744	-0.36592	1.78656	1.22512	-0.29694	1.77936	1.54254	-0.36472	2.07149	1.38503	-0.33871	1.67219	1.59336	-0.17708	1.88559	1.47833	-0.30001	2.02972	1.46010	-0.56070	2.10208	0.21344	-0.77692	1.87842	0.51134	-0.55837	1.75034	0.94976	-0.33889	1.81465	1.36551	-0.79622	1.79082	0.76743	-0.71558	2.04332	0.28643	-0.66544	2.08048	0.04187	-0.36288	1.97041	1.35145	-0.27637	1.87954	1.49342	-0.23200	1.95135	1.54343	-0.59515	1.59725	1.27281	-0.38040	1.71306	1.15825
549	10.960	-0.28397	1.70128	1.35623	-0.44825	1.60499	1.41133	-0.47408	1.75501	0.11530	-0.61388	1.48925	0.93343	-0.17690	1.68444	1.47919	-0.19554	1.40859	1.17359	-0.17977	1.57240	1.50516	-0.29249	1.31434	1.43423	-0.22490	1.34038	1.21983	-0.47311	1.84617	0.11829	-0.52112	1.56644	0.46199	-0.49146	1.66087	0.96432	-0.26733	1.52792	1.39801	-0.51365	1.54024	0.59659	-0.48079	1.64461	0.28287	-0.61004	1.73436	0.02785	-0.21199	1.45289	1.23243	-0.30465	1.36330	1.35142	-0.29148	1.27878	1.31433	-0.65924	2.06981	0.19913	-0.77025	1.65694	0.98416	-0.37841	1.77240	1.26043	-0.29267	1.73845	1.57051	-0.40187	2.03395	1.45675	-0.32443	1.62358	1.61099	-0.19303	1.86702	1.50290	-0.32697	1.99059	1.52095	-0.57640	2.05361	0.20877	-0.78335	1.84557	0.53164	-0.56903	1.73858	0.98168	-0.34752	1.78591	1.40172	-0.80205	1.76154	0.79215	-0.72682	1.99810	0.29611	-0.69598	2.01201	0.05069	-0.38721	1.93931	1.40936	-0.28319	1.84084	1.53239	-0.24230	1.91310	1.58475	-0.58427	1.55361	1.29415	-0.38566	1.70007	1.18266
550	10.980	-0.28622	1.68105	1.38043	-0.43407	1.56073	1.42813	-0.47342	1.73981	0.12204	-0.59549	1.47726	0.94904	-0.16792	1.65951	1.49772	-0.18908	1.42242	1.14647	-0.16259	1.54499	1.51206	-0.29024	1.27966	1.38401	-0.22133	1.34692	1.17753	-0.47775	1.82788	0.13089	-0.49589	1.57885	0.48850	-0.49249	1.65939	0.99323	-0.24870	1.50056	1.39157	-0.49073	1.54795	0.62167	-0.46539	1.64383	0.30010	-0.60819	1.71961	0.02959	-0.20108	1.45555	1.21389	-0.29937	1.34547	1.31315	-0.28986	1.27019	1.25868	-0.67685	2.01049	0.19701	-0.76722	1.62349	1.00888	-0.39410	1.75561	1.29930	-0.28663	1.69356	1.59613	-0.43942	1.98270	1.53092	-0.30917	1.57314	1.62481	-0.21177	1.84890	1.53612	-0.35485	1.94384	1.58329	-0.59296	1.99797	0.20047	-0.78865	1.80991	0.54992	-0.57878	1.72678	1.01321	-0.35653	1.75132	1.43926	-0.80716	1.73017	0.81541	-0.74091	1.94486	0.30197	-0.72582	1.93740	0.05976	-0.41623	1.89804	1.47071	-0.29097	1.80261	1.57169	-0.25417	1.87385	1.62897	-0.56974	1.50999	1.31003	-0.39225	1.68728	1.20622
551	11.000	-0.28872	1.65890	1.40443	-0.41882	1.51729	1.43792	-0.47187	1.73324	0.13309	-0.57330	1.47081	0.95950	-0.16422	1.63221	1.51358	-0.18817	1.44002	1.12242	-0.14830	1.51830	1.51622	-0.28902	1.24397	1.32171	-0.22311	1.36007	1.13674	-0.48627	1.81940	0.14035	-0.47763	1.58923	0.50721	-0.49276	1.66066	1.01911	-0.23333	1.47655	1.38039	-0.47093	1.55861	0.64138	-0.45300	1.64406	0.31462	-0.59878	1.69327	0.03765	-0.19585	1.46166	1.19609	-0.29252	1.32908	1.27302	-0.29797	1.27051	1.19997	-0.69525	1.94657	0.19127	-0.75957	1.59068	1.02770	-0.41179	1.73468	1.34053	-0.28223	1.64748	1.61675	-0.48087	1.91442	1.60501	-0.29419	1.52317	1.63264	-0.23413	1.82827	1.58020	-0.38519	1.88615	1.64787	-0.61134	1.93591	0.18982	-0.79175	1.77028	0.56519	-0.58718	1.71565	1.04178	-0.36688	1.71376	1.47554	-0.81078	1.69659	0.83482	-0.75542	1.88818	0.30499	-0.75273	1.85757	0.06813	-0.44682	1.84422	1.53198	-0.29566	1.76281	1.61343	-0.26992	1.83046	1.67863	-0.55220	1.46827	1.31708	-0.40117	1.67492	1.22842
552	11.020	-0.29116	1.63374	1.42780	-0.40311	1.47631	1.44034	-0.47649	1.73303	0.14628	-0.54819	1.47069	0.96386	-0.15869	1.60441	1.52746	-0.19369	1.45908	1.10134	-0.13620	1.49194	1.51807	-0.29302	1.22189	1.25307	-0.22963	1.37799	1.09937	-0.51100	1.81383	0.14631	-0.46446	1.59381	0.52091	-0.49424	1.66465	1.04163	-0.22079	1.45760	1.36616	-0.45584	1.56888	0.65551	-0.44467	1.65245	0.32831	-0.58020	1.65708	0.04678	-0.19452	1.46984	1.17913	-0.29282	1.31611	1.22914	-0.31132	1.27947	1.14454	-0.71792	1.87904	0.18184	-0.74745	1.55925	1.03782	-0.42945	1.70851	1.38151	-0.27443	1.60119	1.63156	-0.52055	1.82246	1.67545	-0.28045	1.47614	1.63473	-0.26436	1.80022	1.63826	-0.41794	1.81055	1.71472	-0.63399	1.87337	0.17878	-0.79556	1.72856	0.57426	-0.59544	1.70469	1.06580	-0.37722	1.66913	1.50908	-0.81220	1.66038	0.84790	-0.77173	1.82886	0.30501	-0.77476	1.77162	0.07521	-0.47629	1.77362	1.58977	-0.30485	1.71537	1.65973	-0.29253	1.77643	1.73584	-0.53285	1.42924	1.31504	-0.41024	1.66232	1.25191
553	11.040	-0.29407	1.60354	1.44693	-0.38730	1.43911	1.43516	-0.48650	1.72393	0.15478	-0.52232	1.47745	0.96506	-0.15372	1.57646	1.53833	-0.20556	1.47629	1.08351	-0.12632	1.46623	1.51826	-0.30225	1.21392	1.19372	-0.24234	1.39706	1.06794	-0.53765	1.79597	0.14752	-0.44911	1.60551	0.53209	-0.49787	1.67031	1.05989	-0.21070	1.44578	1.35170	-0.43990	1.58284	0.66784	-0.44165	1.66275	0.33979	-0.56180	1.62092	0.05595	-0.19824	1.47842	1.16299	-0.30114	1.31017	1.18773	-0.32395	1.29050	1.09810	-0.74629	1.80723	0.17295	-0.73117	1.53089	1.04077	-0.44421	1.67277	1.41889	-0.26940	1.56129	1.63853	-0.55367	1.70620	1.73193	-0.26921	1.43295	1.63279	-0.30311	1.75340	1.71038	-0.45005	1.71010	1.77521	-0.66273	1.81502	0.16757	-0.79840	1.68245	0.57828	-0.60414	1.69453	1.08309	-0.38629	1.61850	1.53714	-0.80983	1.62284	0.85360	-0.79012	1.76243	0.30296	-0.78771	1.67955	0.08461	-0.50143	1.68667	1.63844	-0.31722	1.65818	1.71052	-0.32467	1.70324	1.79845	-0.51144	1.39584	1.30469	-0.41896	1.65460	1.28177
554	11.060	-0.29828	1.57572	1.45860	-0.36994	1.40613	1.42451	-0.49809	1.70644	0.15801	-0.49743	1.48862	0.96683	-0.14848	1.54923	1.54492	-0.22053	1.48775	1.06706	-0.11810	1.44196	1.51669	-0.31942	1.20822	1.14862	-0.25730	1.40995	1.04299	-0.56242	1.76646	0.14632	-0.43926	1.62277	0.54221	-0.50473	1.67690	1.07228	-0.20257	1.44322	1.33688	-0.42669	1.60660	0.67849	-0.44280	1.66819	0.34571	-0.55010	1.58414	0.06559	-0.20447	1.48636	1.14695	-0.31531	1.30572	1.15313	-0.33563	1.29751	1.06136	-0.77444	1.73058	0.16723	-0.71289	1.50619	1.03950	-0.45644	1.62966	1.45103	-0.26431	1.51809	1.64654	-0.57846	1.57097	1.75984	-0.25926	1.39499	1.62714	-0.34613	1.68089	1.79292	-0.48280	1.58898	1.81836	-0.69482	1.75764	0.15509	-0.79808	1.63055	0.58108	-0.61411	1.68596	1.09108	-0.39447	1.56058	1.55795	-0.80253	1.58283	0.85538	-0.80640	1.68801	0.30178	-0.78822	1.58673	0.09920	-0.52067	1.58263	1.67005	-0.33589	1.58762	1.76608	-0.36456	1.60355	1.86019	-0.48702	1.36908	1.28803	-0.42898	1.64545	1.31022
